<svg xmlns="http://www.w3.org/2000/svg" xmlns:xlink="http://www.w3.org/1999/xlink" viewBox="0 0 658.96 509.62"><defs><style>.cls-1{fill:none;}.cls-2{clip-path:url(#clip-path);}.cls-3{fill:#e52421;}.cls-4{fill:#e6292e;}</style><clipPath id="clip-path" transform="translate(47 136.75)"><rect class="cls-1" width="480" height="298"/></clipPath></defs><g id="Layer_2" data-name="Layer 2"><g id="Layer_1-2" data-name="Layer 1"><g class="cls-2"><path class="cls-3" d="M394.33,116.48C363.17,115,305.91.08,361.1-77.87a139.42,139.42,0,0,1,194.35-33.24C634-55.49,615.93,73,588.69,83.25c-24.56,9.21-58.27-77-106.83-70.29C431.69,19.85,423.54,117.89,394.33,116.48Z" transform="translate(47 136.75)"/><path class="cls-4" d="M145,276.87c11.55,18.11-30.23,96-96,96a96,96,0,0,1-96-96c0-66.28,79.42-107.24,96-96,15,10.14-20.07,63.37,3,88C75.83,294.32,134.17,259.89,145,276.87Z" transform="translate(47 136.75)"/></g></g></g></svg>